<svg xmlns="http://www.w3.org/2000/svg" viewBox="0 0 64 64"><title>Viajes Waira</title><defs><linearGradient id="g" x1="0" y1="0" x2="1" y2="1"><stop offset="0" stop-color="#12a0ab"/><stop offset="1" stop-color="#0a5c64"/></linearGradient></defs><rect width="64" height="64" rx="16" fill="url(#g)"/><circle cx="44" cy="20" r="7" fill="#f28c28"/><path d="M8 40c8-6 14-6 20 0s12 6 20 0 8-4 8-4v6s-4 4-8 4c-6 4-14 4-20-1s-12-5-20 1Z" fill="#fff" opacity=".95"/><path d="M8 50c8-5 14-5 20 0s12 5 20 0 8-3 8-3v5c-8 6-16 6-24 2s-14-4-24 1Z" fill="#fff" opacity=".6"/><path d="M14 34 20 16l6 12 6-10 6 16" fill="none" stroke="#fff" stroke-width="3.2" stroke-linecap="round" stroke-linejoin="round"/></svg>
