<svg xmlns="http://www.w3.org/2000/svg" viewBox="0 0 1200 800" preserveAspectRatio="xMidYMid slice" role="img"><title>Guatapé (ilustración)</title>
<defs>
<linearGradient id="s" x1="0" y1="0" x2="0" y2="1"><stop offset="0" stop-color="#2b3a67"/><stop offset="1" stop-color="#b56576"/></linearGradient>
<linearGradient id="w" x1="0" y1="0" x2="0" y2="1"><stop offset="0" stop-color="#3d5a80"/><stop offset="1" stop-color="#293241"/></linearGradient>
</defs>
<rect width="1200" height="800" fill="url(#s)"/>
<circle cx="300" cy="200" r="70" fill="#fbe7c6" opacity=".95"/>
<g fill="#ffffff" opacity="0.8">
<ellipse cx="220" cy="150" rx="90" ry="26"/><ellipse cx="270" cy="132" rx="60" ry="30"/>
<ellipse cx="880" cy="110" rx="110" ry="24"/><ellipse cx="940" cy="94" rx="60" ry="26"/>
</g><path d="M0 520 Q300 460 600 510 T1200 490 V800 H0Z" fill="#51557e"/><path d="M0 560 H1200 V800 H0Z" fill="#3d5a80"/><path d="M520 560 C520 330 560 230 640 230 C720 230 760 330 760 560Z" fill="#1b1d33"/><path d="M600 250 L570 540" stroke="#ffd37a" stroke-width="4" opacity=".6" stroke-dasharray="10 8"/><path d="M0 620 Q200 590 400 630 T800 610 T1200 630 V800 H0Z" fill="#2c2f4f"/></svg>
